<mxfile host="app.diagrams.net" modified="2023-10-30T14:54:42.790Z" agent="Mozilla/5.0 (Macintosh; Intel Mac OS X 10_15_7) AppleWebKit/537.36 (KHTML, like Gecko) Chrome/118.0.0.0 Safari/537.36" etag="GVi8CY65f1rbCFKAkRhl" version="22.0.8" type="device">
  <diagram name="PÃ¡gina-1" id="j1OjUK60oeMZF37LuHiu">
    <mxGraphModel dx="1026" dy="654" grid="1" gridSize="10" guides="1" tooltips="1" connect="1" arrows="1" fold="1" page="1" pageScale="1" pageWidth="827" pageHeight="1169" math="0" shadow="0">
      <root>
        <mxCell id="0" />
        <mxCell id="1" parent="0" />
      </root>
    </mxGraphModel>
  </diagram>
</mxfile>
